<svg data-v-fde0c5aa="" xmlns="http://www.w3.org/2000/svg" viewBox="0 0 300 300" class="iconAbove"><!----><defs data-v-fde0c5aa=""><!----></defs><rect data-v-fde0c5aa="" fill="transparent" x="0" y="0" width="300px" height="300px" class="logo-background-square"></rect><defs data-v-fde0c5aa=""><!----></defs><g data-v-fde0c5aa="" id="ea5c8c77-a298-427b-9932-4f8dc4baa982" fill="#000000" transform="matrix(4.284772555906249,0,0,4.284772555906249,18.8002636792384,169.1120638040176)"><path d="M3.29 5.33C3.36 4.69 4.00 4.44 4.91 4.61L4.91 3.12C4.66 3.07 4.37 3.02 4.07 3.02C2.06 3.02 1.20 3.82 1.09 5.14C1.08 5.39 1.08 5.74 1.08 5.98L1.08 6.17L0.28 6.17L0.28 7.57L1.08 7.57L1.08 13.58L3.26 13.58L3.26 7.57L4.79 7.57L4.79 6.17L3.26 6.17L3.26 5.95C3.26 5.75 3.26 5.53 3.29 5.33ZM10.16 13.58L12.31 13.58C12.19 12.75 12.17 12.25 12.17 11.69L12.17 9.42C12.17 8.99 12.15 8.57 12.12 8.22C12.01 6.89 11.21 5.92 9.00 5.92C7.18 5.92 5.74 6.89 5.70 8.60L7.80 8.60C7.85 7.85 8.23 7.43 8.92 7.43C9.58 7.43 9.91 7.80 9.95 8.25C9.98 8.50 9.98 8.69 9.98 8.89L9.98 9.02L9.51 9.02C6.87 9.02 5.43 9.97 5.43 11.59C5.43 13.01 6.57 13.78 7.83 13.78C8.51 13.78 9.14 13.62 9.67 13.29L10.01 12.49ZM8.69 12.26C8.09 12.26 7.69 11.97 7.69 11.41C7.69 10.54 8.62 10.21 9.98 10.32L9.98 10.86C9.98 11.79 9.35 12.26 8.69 12.26ZM17.95 5.92C17.51 5.92 16.97 6.12 16.59 6.51L16.03 7.55L16.03 6.12L13.83 6.12L13.83 13.58L16.03 13.58L16.03 10.46C16.03 8.34 16.77 7.64 18.51 7.76L18.51 5.98C18.34 5.95 18.19 5.92 17.95 5.92ZM22.83 5.92C20.36 5.92 18.90 7.52 18.90 9.84C18.90 12.17 20.36 13.78 22.83 13.78C25.30 13.78 26.77 12.17 26.77 9.84C26.77 7.52 25.30 5.92 22.83 5.92ZM22.83 12.26C21.78 12.26 21.15 11.40 21.15 9.84C21.15 8.29 21.78 7.43 22.83 7.43C23.87 7.43 24.50 8.29 24.50 9.84C24.50 11.40 23.87 12.26 22.83 12.26ZM30.41 5.33C30.48 4.69 31.12 4.44 32.03 4.61L32.03 3.12C31.78 3.07 31.49 3.02 31.19 3.02C29.18 3.02 28.32 3.82 28.21 5.14C28.20 5.39 28.20 5.74 28.20 5.98L28.20 6.17L27.40 6.17L27.40 7.57L28.20 7.57L28.20 13.58L30.38 13.58L30.38 7.57L31.91 7.57L31.91 6.17L30.38 6.17L30.38 5.95C30.38 5.75 30.38 5.53 30.41 5.33ZM34.02 3.23C33.32 3.23 32.86 3.67 32.86 4.34C32.86 5.03 33.32 5.46 34.02 5.46C34.72 5.46 35.20 5.03 35.20 4.34C35.20 3.67 34.72 3.23 34.02 3.23ZM35.13 13.58L35.13 6.12L32.93 6.12L32.93 13.58ZM43.99 7.98C43.82 6.68 42.91 5.92 41.34 5.92C40.64 5.92 40.11 6.06 39.61 6.40L38.99 7.29L38.99 6.12L36.79 6.12L36.79 13.58L38.99 13.58L38.99 10.12C38.99 8.22 39.63 7.43 40.50 7.43C41.36 7.43 41.78 7.91 41.83 8.67C41.86 9.04 41.86 9.42 41.86 9.70L41.86 13.58L44.06 13.58L44.06 9.37C44.06 8.76 44.04 8.36 43.99 7.98ZM52.82 7.98C52.65 6.68 51.74 5.92 50.18 5.92C49.48 5.92 48.94 6.06 48.44 6.40L47.82 7.29L47.82 3.22L45.63 3.22L45.63 13.58L47.82 13.58L47.82 10.12C47.82 8.22 48.47 7.45 49.34 7.43C50.19 7.43 50.61 7.91 50.67 8.67C50.69 9.04 50.69 9.42 50.69 9.70L50.69 13.58L52.89 13.58L52.89 9.37C52.89 8.76 52.88 8.36 52.82 7.98ZM58.81 13.58L60.96 13.58C60.84 12.75 60.82 12.25 60.82 11.69L60.82 9.42C60.82 8.99 60.80 8.57 60.77 8.22C60.66 6.89 59.86 5.92 57.65 5.92C55.83 5.92 54.39 6.89 54.35 8.60L56.45 8.60C56.50 7.85 56.88 7.43 57.57 7.43C58.23 7.43 58.56 7.80 58.60 8.25C58.63 8.50 58.63 8.69 58.63 8.89L58.63 9.02L58.16 9.02C55.52 9.02 54.08 9.97 54.08 11.59C54.08 13.01 55.22 13.78 56.48 13.78C57.16 13.78 57.79 13.62 58.32 13.29L58.66 12.49ZM57.34 12.26C56.74 12.26 56.34 11.97 56.34 11.41C56.34 10.54 57.27 10.21 58.63 10.32L58.63 10.86C58.63 11.79 58.00 12.26 57.34 12.26Z"></path></g><defs data-v-fde0c5aa=""><!----></defs><g data-v-fde0c5aa="" id="322e2fa1-dd9c-4351-b2f0-a7c8c17baee9" stroke="none" fill="#000000" transform="matrix(1.7366856668945863,0,0,1.7366856668945863,63.164711736191485,27.29153878667406)"><path d="M95.807 38.926a1.435 1.435 0 0 0-.542-.595l-2.979-1.766a1.222 1.222 0 0 0-1.154-.059c-.02.008-2.068.948-7.848 2.89-3.051 1.026-5.718 3.03-8.07 4.8-2.282 1.713-4.436 3.333-6.147 3.384-2.164.062-3.565.648-4.288 1.796a2.948 2.948 0 0 0-.408 1.025l-3.7 2.296a43.38 43.38 0 0 0-2.694-.723c-2.501-.592-5.347-1.07-8.427-1.428a12.719 12.719 0 0 1 .567 2.007c.07.369.121.727.15 1.071 2.6.327 5.006.752 7.149 1.258 6.219 1.469 7.745 3.109 7.925 3.631-.003.003-.062.003-.062.003v.001c0 .079.039.161.03.247l.03.001c-.284.587-1.974 2.15-7.939 3.562-5.758 1.361-13.422 2.111-21.6 2.111s-15.846-.75-21.604-2.111c-6.644-1.573-8.001-3.337-8.001-3.723 0-.387 1.36-2.136 8.004-3.702 2.962-.701 6.432-1.234 10.219-1.588-.008-.05-.016-.081-.026-.134-.078-.41-.201-.966-.352-1.264h-.002c-.159-.595-.35-.979-.548-1.475-3.628.369-6.969.827-9.851 1.507-6.775 1.604-10.089 3.833-10.124 6.51H3.51c-.004.298-.058 5.771 4.562 10.998 5.433 6.147 14.764 9.292 27.734 9.292 31.699 0 32.073-14.203 32.196-18.875.005-.172.01-.357.017-.52l.003-.007a3.415 3.415 0 0 0 .016-1.407l.33-.285c.105.009.213.012.323.012.76 0 1.699-.153 2.804-.617a1.31 1.31 0 0 0 .309-.188C84.278 46.85 90.769 45.346 93.54 44.703c.857-.198 1.373-.317 1.811-.627 1.544-1.089 1.339-3.369.456-5.15zM61.699 69.11c-4.547 4.441-13.258 6.694-25.892 6.694-11.991 0-20.894-2.869-25.748-8.296a15.862 15.862 0 0 1-2.818-4.416c1.605.809 3.731 1.522 6.396 2.152 5.938 1.402 13.81 2.169 22.169 2.169 8.36 0 16.234-.775 22.169-2.179 3.072-.727 5.433-1.567 7.098-2.533-.34 1.946-1.185 4.273-3.374 6.409zm4.812-13.595a8.787 8.787 0 0 0-1.303-.931c-.344-.204-.72-.404-1.125-.601l2.022-1.251c.254 0 .728.032 1.068.354.327.315.476.853.537 1.392.003.002.003.008.003.013l-1.202 1.024zm26.478-13.723c-2.927.679-9.767 2.267-22.606 12.54a.13.13 0 0 1-.037.011c-.123-1.546-.612-2.738-1.493-3.55a4.184 4.184 0 0 0-.25-.211c.161-.015.341-.026.534-.032 2.498-.072 4.969-1.93 7.584-3.896 2.305-1.73 4.684-3.518 7.343-4.413 4.246-1.427 6.515-2.322 7.5-2.732l2.042 1.21c.115.324.198.663.203.871-.196.059-.524.134-.82.202z"></path><path d="M40.839 51.379v1.49c1.612.064 3.408.166 5.039.3 0-.003-.021-.009-.021-.012-.089-.479-.183-.984-.452-1.511v-.003c0-.481-.354-.976-.558-1.486-.002-.015-.002-.033-.008-.048a115.605 115.605 0 0 0-4.235-.226c.094.505.236 1.005.236 1.489l-.001.007zM28.631 52.553c.03.152.054.301.075.447 2.299-.126 4.679-.19 7.101-.19h.198c.011-.477-.013-.97-.072-1.487a13.62 13.62 0 0 0-.256-1.486h-.008c-2.661 0-5.269.077-7.783.231.186.485.357.973.497 1.467.1.337.183.677.248 1.018z"></path><path d="M36.744 49.803c.002.006.002.016.005.021.115.506.199.993.255 1.467l.002.021c.056.508.083.996.073 1.465v.021a8.553 8.553 0 0 1-.172 1.567c-.14.675-.51 1.275-.943 1.972-.65 1.049-1.461 2.357-1.391 4.169.024.585.349 1.076.8 1.297.002.002.002 0 .002 0 .166.083.346.127.537.127.021 0 .04 0 .059-.003.169-.009.331-.05.476-.124.497-.235.833-.791.809-1.426-.03-.777.33-1.402.924-2.36.51-.823 1.091-1.76 1.346-2.989.145-.707.237-1.436.237-2.193v-1.49c0-.487-.139-.987-.233-1.495-.462-2.498-1.553-5.272-3.229-8.367-3.454-6.373-1.74-11.068.776-13.152.593-.491.714-1.424.269-2.082a1.353 1.353 0 0 0-.54-.469 1.206 1.206 0 0 0-1.075 0 1.297 1.297 0 0 0-.266.169c-5.108 4.231-4.418 11.621-1.47 17.062 1.384 2.546 2.298 4.8 2.749 6.792zM24.264 50.345c.198.499.392.981.553 1.451.165.471.299.926.379 1.363.005.029.011.06.013.089.234 1.297.124 2.148-.408 3.215-.116.235-.325.524-.548.822-.628.837-1.487 2-1.203 3.582.1.551.462.862.916 1.16h.003c.126 0 .261.035.397.035.089 0 .177-.044.266-.065a.643.643 0 0 0 .14-.042c.646-.22 1.047-.954.913-1.707-.035-.188.384-.749.634-1.084.279-.372.596-.795.835-1.275.782-1.57 1.015-3.042.754-4.843a11.532 11.532 0 0 0-.314-1.464c-.14-.495-.312-.982-.495-1.467-.147-.393-.303-.782-.456-1.166-1.15-2.863-1.727-4.562-.252-6.188.523-.58.526-1.522.003-2.103a1.306 1.306 0 0 0-.548-.365 1.175 1.175 0 0 0-.806 0 1.26 1.26 0 0 0-.545.363c-2.855 3.149-1.383 6.818-.306 9.5.024.064.051.126.075.189zM45.684 50.175l.086.212c.152.422.296.822.429 1.091.029.077.062.158.09.234.174.503.333.987.418 1.448.005.022.041.05.041.078v.006c.269 1.296.097 2.149-.436 3.219-.115.235-.351.523-.574.82-.628.839-1.488 2.002-1.204 3.584.094.52.425.827.843 1.111l.073.049h.002c.127 0 .261.035.398.035.088 0 .177-.044.266-.065a.643.643 0 0 0 .14-.042c.647-.22 1.047-.954.913-1.707-.035-.188.384-.749.634-1.084.28-.372.597-.795.835-1.275.711-1.429.969-2.778.814-4.366a10.886 10.886 0 0 0-.264-1.52 14.84 14.84 0 0 0-.48-1.552 39.199 39.199 0 0 0-.58-1.502c-1.15-2.863-1.727-4.562-.253-6.188.524-.58.526-1.522.002-2.103a1.294 1.294 0 0 0-.548-.365 1.173 1.173 0 0 0-.805 0 1.242 1.242 0 0 0-.542.362c-2.855 3.149-1.383 6.818-.307 9.501.004.007.009.013.009.019z"></path></g><!----></svg>