<?xml version="1.0" encoding="UTF-8"?>
<svg xmlns="http://www.w3.org/2000/svg" xmlns:xlink="http://www.w3.org/1999/xlink" width="250pt" height="250pt" viewBox="0 0 250 250" version="1.1">
<g id="surface1">
<rect x="0" y="0" width="250" height="250" style="fill:rgb(100%,100%,100%);fill-opacity:1;stroke:none;"/>
<path style=" stroke:none;fill-rule:nonzero;fill:rgb(0%,0%,0%);fill-opacity:1;" d="M 27.414062 159.957031 C 27.664062 157.671875 29.949219 156.78125 33.199219 157.386719 L 33.199219 152.066406 C 32.304688 151.886719 31.269531 151.710938 30.199219 151.710938 C 23.023438 151.710938 19.953125 154.566406 19.558594 159.28125 C 19.523438 160.171875 19.523438 161.421875 19.523438 162.277344 L 19.523438 162.957031 L 16.667969 162.957031 L 16.667969 167.957031 L 19.523438 167.957031 L 19.523438 189.417969 L 27.308594 189.417969 L 27.308594 167.957031 L 32.769531 167.957031 L 32.769531 162.957031 L 27.308594 162.957031 L 27.308594 162.171875 C 27.308594 161.457031 27.308594 160.671875 27.414062 159.957031 Z M 51.945312 189.417969 L 59.621094 189.417969 C 59.191406 186.453125 59.121094 184.667969 59.121094 182.667969 L 59.121094 174.5625 C 59.121094 173.027344 59.050781 171.527344 58.941406 170.277344 C 58.550781 165.527344 55.695312 162.066406 47.800781 162.066406 C 41.304688 162.066406 36.164062 165.527344 36.019531 171.632812 L 43.519531 171.632812 C 43.695312 168.957031 45.054688 167.457031 47.515625 167.457031 C 49.875 167.457031 51.050781 168.777344 51.195312 170.382812 C 51.300781 171.277344 51.300781 171.957031 51.300781 172.667969 L 51.300781 173.132812 L 49.625 173.132812 C 40.195312 173.132812 35.054688 176.527344 35.054688 182.308594 C 35.054688 187.378906 39.125 190.128906 43.625 190.128906 C 46.054688 190.128906 48.300781 189.558594 50.195312 188.378906 L 51.410156 185.523438 Z M 46.695312 184.703125 C 44.554688 184.703125 43.125 183.667969 43.125 181.667969 C 43.125 178.5625 46.445312 177.382812 51.300781 177.777344 L 51.300781 179.703125 C 51.300781 183.023438 49.050781 184.703125 46.695312 184.703125 Z M 79.761719 162.066406 C 78.1875 162.066406 76.261719 162.777344 74.902344 164.171875 L 72.90625 167.886719 L 72.90625 162.777344 L 65.050781 162.777344 L 65.050781 189.417969 L 72.90625 189.417969 L 72.90625 178.277344 C 72.90625 170.707031 75.546875 168.207031 81.757812 168.636719 L 81.757812 162.277344 C 81.152344 162.171875 80.617188 162.066406 79.761719 162.066406 Z M 97.183594 162.066406 C 88.363281 162.066406 83.152344 167.777344 83.152344 176.0625 C 83.152344 184.382812 88.363281 190.128906 97.183594 190.128906 C 106.003906 190.128906 111.253906 184.382812 111.253906 176.0625 C 111.253906 167.777344 106.003906 162.066406 97.183594 162.066406 Z M 97.183594 184.703125 C 93.433594 184.703125 91.1875 181.632812 91.1875 176.0625 C 91.1875 170.527344 93.433594 167.457031 97.183594 167.457031 C 100.898438 167.457031 103.148438 170.527344 103.148438 176.0625 C 103.148438 181.632812 100.898438 184.703125 97.183594 184.703125 Z M 124.25 159.957031 C 124.5 157.671875 126.785156 156.78125 130.035156 157.386719 L 130.035156 152.066406 C 129.140625 151.886719 128.105469 151.710938 127.035156 151.710938 C 119.859375 151.710938 116.789062 154.566406 116.394531 159.28125 C 116.359375 160.171875 116.359375 161.421875 116.359375 162.277344 L 116.359375 162.957031 L 113.503906 162.957031 L 113.503906 167.957031 L 116.359375 167.957031 L 116.359375 189.417969 L 124.144531 189.417969 L 124.144531 167.957031 L 129.605469 167.957031 L 129.605469 162.957031 L 124.144531 162.957031 L 124.144531 162.171875 C 124.144531 161.457031 124.144531 160.671875 124.25 159.957031 Z M 137.140625 152.460938 C 134.640625 152.460938 133 154.03125 133 156.421875 C 133 158.886719 134.640625 160.421875 137.140625 160.421875 C 139.640625 160.421875 141.355469 158.886719 141.355469 156.421875 C 141.355469 154.03125 139.640625 152.460938 137.140625 152.460938 Z M 141.105469 189.417969 L 141.105469 162.777344 L 133.25 162.777344 L 133.25 189.417969 Z M 172.738281 169.421875 C 172.132812 164.777344 168.882812 162.066406 163.277344 162.066406 C 160.777344 162.066406 158.886719 162.566406 157.101562 163.777344 L 154.886719 166.957031 L 154.886719 162.777344 L 147.03125 162.777344 L 147.03125 189.417969 L 154.886719 189.417969 L 154.886719 177.0625 C 154.886719 170.277344 157.171875 167.457031 160.277344 167.457031 C 163.347656 167.457031 164.847656 169.171875 165.027344 171.882812 C 165.132812 173.207031 165.132812 174.5625 165.132812 175.5625 L 165.132812 189.417969 L 172.988281 189.417969 L 172.988281 174.382812 C 172.988281 172.207031 172.917969 170.777344 172.738281 169.421875 Z M 204.269531 169.421875 C 203.660156 164.777344 200.410156 162.066406 194.839844 162.066406 C 192.34375 162.066406 190.414062 162.566406 188.628906 163.777344 L 186.414062 166.957031 L 186.414062 152.425781 L 178.59375 152.425781 L 178.59375 189.417969 L 186.414062 189.417969 L 186.414062 177.0625 C 186.414062 170.277344 188.734375 167.527344 191.84375 167.457031 C 194.878906 167.457031 196.378906 169.171875 196.589844 171.882812 C 196.664062 173.207031 196.664062 174.5625 196.664062 175.5625 L 196.664062 189.417969 L 204.519531 189.417969 L 204.519531 174.382812 C 204.519531 172.207031 204.484375 170.777344 204.269531 169.421875 Z M 225.65625 189.417969 L 233.332031 189.417969 C 232.90625 186.453125 232.832031 184.667969 232.832031 182.667969 L 232.832031 174.5625 C 232.832031 173.027344 232.761719 171.527344 232.65625 170.277344 C 232.261719 165.527344 229.40625 162.066406 221.515625 162.066406 C 215.015625 162.066406 209.875 165.527344 209.730469 171.632812 L 217.230469 171.632812 C 217.410156 168.957031 218.765625 167.457031 221.230469 167.457031 C 223.585938 167.457031 224.765625 168.777344 224.90625 170.382812 C 225.015625 171.277344 225.015625 171.957031 225.015625 172.667969 L 225.015625 173.132812 L 223.335938 173.132812 C 213.910156 173.132812 208.765625 176.527344 208.765625 182.308594 C 208.765625 187.378906 212.835938 190.128906 217.335938 190.128906 C 219.765625 190.128906 222.015625 189.558594 223.90625 188.378906 L 225.121094 185.523438 Z M 220.40625 184.703125 C 218.265625 184.703125 216.835938 183.667969 216.835938 181.667969 C 216.835938 178.5625 220.15625 177.382812 225.015625 177.777344 L 225.015625 179.703125 C 225.015625 183.023438 222.765625 184.703125 220.40625 184.703125 Z M 220.40625 184.703125 "/>
<path style=" stroke:none;fill-rule:nonzero;fill:rgb(0%,0%,0%);fill-opacity:1;" d="M 191.292969 79.078125 C 191.117188 78.722656 190.847656 78.421875 190.507812 78.21875 L 186.195312 75.660156 C 185.691406 75.355469 185.0625 75.324219 184.527344 75.574219 C 184.496094 75.585938 181.535156 76.949219 173.167969 79.757812 C 168.753906 81.242188 164.894531 84.144531 161.488281 86.707031 C 158.1875 89.183594 155.070312 91.527344 152.59375 91.601562 C 149.460938 91.691406 147.433594 92.539062 146.386719 94.203125 C 146.097656 94.65625 145.898438 95.15625 145.796875 95.683594 L 140.441406 99.007812 C 139.15625 98.617188 137.855469 98.269531 136.542969 97.960938 C 132.925781 97.105469 128.804688 96.414062 124.347656 95.894531 C 124.699219 96.839844 124.976562 97.8125 125.167969 98.800781 C 125.269531 99.332031 125.34375 99.851562 125.386719 100.351562 C 129.148438 100.824219 132.628906 101.4375 135.730469 102.171875 C 144.730469 104.296875 146.941406 106.667969 147.203125 107.425781 C 147.195312 107.429688 147.113281 107.429688 147.113281 107.429688 C 147.113281 107.546875 147.167969 107.664062 147.15625 107.789062 L 147.199219 107.789062 C 146.789062 108.640625 144.339844 110.902344 135.707031 112.945312 C 127.375 114.914062 116.285156 116 104.449219 116 C 92.613281 116 81.515625 114.914062 73.183594 112.945312 C 63.566406 110.667969 61.601562 108.117188 61.601562 107.558594 C 61.601562 106.996094 63.570312 104.464844 73.1875 102.199219 C 77.472656 101.183594 82.496094 100.414062 87.976562 99.902344 C 87.964844 99.828125 87.953125 99.785156 87.9375 99.707031 C 87.824219 99.113281 87.648438 98.308594 87.429688 97.878906 L 87.425781 97.878906 C 87.195312 97.015625 86.917969 96.460938 86.632812 95.742188 C 81.382812 96.277344 76.546875 96.941406 72.375 97.925781 C 62.570312 100.246094 57.773438 103.472656 57.722656 107.34375 L 57.71875 107.34375 C 57.710938 107.777344 57.632812 115.699219 64.320312 123.261719 C 72.183594 132.160156 85.6875 136.710938 104.457031 136.710938 C 150.332031 136.710938 150.875 116.15625 151.050781 109.394531 C 151.058594 109.144531 151.066406 108.875 151.078125 108.640625 L 151.082031 108.628906 C 151.230469 107.960938 151.238281 107.265625 151.105469 106.59375 L 151.582031 106.183594 C 151.734375 106.195312 151.890625 106.199219 152.050781 106.199219 C 153.148438 106.199219 154.507812 105.976562 156.109375 105.304688 C 156.269531 105.238281 156.417969 105.144531 156.554688 105.035156 C 174.609375 90.546875 184 88.371094 188.011719 87.4375 C 189.253906 87.152344 190 86.980469 190.632812 86.53125 C 192.867188 84.957031 192.570312 81.65625 191.292969 79.078125 Z M 141.929688 122.761719 C 135.351562 129.1875 122.742188 132.449219 104.457031 132.449219 C 87.105469 132.449219 74.21875 128.296875 67.195312 120.441406 C 65.492188 118.554688 64.113281 116.394531 63.117188 114.050781 C 65.441406 115.222656 68.515625 116.253906 72.375 117.167969 C 80.96875 119.195312 92.359375 120.304688 104.457031 120.304688 C 116.554688 120.304688 127.953125 119.183594 136.539062 117.152344 C 140.988281 116.101562 144.402344 114.882812 146.8125 113.484375 C 146.320312 116.300781 145.097656 119.671875 141.929688 122.761719 Z M 148.894531 103.085938 C 148.308594 102.582031 147.675781 102.128906 147.007812 101.738281 C 146.511719 101.445312 145.964844 101.15625 145.378906 100.871094 L 148.308594 99.058594 C 148.675781 99.058594 149.359375 99.105469 149.851562 99.570312 C 150.324219 100.027344 150.542969 100.804688 150.628906 101.585938 C 150.632812 101.589844 150.632812 101.597656 150.632812 101.605469 Z M 187.214844 83.226562 C 182.976562 84.207031 173.078125 86.507812 154.5 101.375 C 154.480469 101.382812 154.464844 101.386719 154.445312 101.390625 C 154.265625 99.152344 153.558594 97.425781 152.285156 96.253906 C 152.167969 96.144531 152.046875 96.042969 151.921875 95.945312 C 152.15625 95.925781 152.414062 95.910156 152.695312 95.902344 C 156.308594 95.796875 159.886719 93.109375 163.671875 90.261719 C 167.007812 87.757812 170.449219 85.171875 174.296875 83.875 C 180.441406 81.808594 183.726562 80.515625 185.152344 79.921875 L 188.109375 81.671875 C 188.273438 82.140625 188.394531 82.632812 188.402344 82.933594 C 188.117188 83.019531 187.644531 83.128906 187.214844 83.226562 Z M 187.214844 83.226562 "/>
<path style=" stroke:none;fill-rule:nonzero;fill:rgb(0%,0%,0%);fill-opacity:1;" d="M 111.742188 97.101562 L 111.742188 99.257812 C 114.074219 99.347656 116.671875 99.496094 119.035156 99.691406 C 119.035156 99.6875 119.003906 99.679688 119.003906 99.671875 C 118.875 98.980469 118.738281 98.25 118.347656 97.488281 L 118.347656 97.484375 C 118.347656 96.785156 117.835938 96.070312 117.542969 95.332031 C 117.539062 95.308594 117.539062 95.285156 117.53125 95.261719 C 115.488281 95.117188 113.445312 95.007812 111.402344 94.933594 C 111.535156 95.667969 111.742188 96.390625 111.742188 97.089844 Z M 94.074219 98.800781 C 94.117188 99.019531 94.152344 99.234375 94.183594 99.445312 C 97.507812 99.265625 100.953125 99.171875 104.457031 99.171875 L 104.746094 99.171875 C 104.761719 98.480469 104.726562 97.769531 104.640625 97.019531 C 104.558594 96.296875 104.433594 95.578125 104.269531 94.867188 L 104.257812 94.867188 C 100.40625 94.867188 96.632812 94.980469 92.996094 95.203125 C 93.265625 95.90625 93.511719 96.613281 93.714844 97.328125 C 93.859375 97.8125 93.980469 98.304688 94.074219 98.800781 Z M 94.074219 98.800781 "/>
<path style=" stroke:none;fill-rule:nonzero;fill:rgb(0%,0%,0%);fill-opacity:1;" d="M 105.816406 94.820312 C 105.816406 94.828125 105.816406 94.84375 105.820312 94.851562 C 105.988281 95.582031 106.109375 96.289062 106.191406 96.972656 L 106.195312 97.003906 C 106.273438 97.738281 106.3125 98.445312 106.300781 99.125 L 106.300781 99.152344 C 106.285156 99.917969 106.203125 100.675781 106.050781 101.421875 C 105.847656 102.398438 105.3125 103.265625 104.6875 104.277344 C 103.746094 105.792969 102.570312 107.6875 102.671875 110.308594 C 102.707031 111.15625 103.175781 111.867188 103.832031 112.1875 C 103.832031 112.191406 103.832031 112.1875 103.832031 112.1875 C 104.074219 112.308594 104.335938 112.371094 104.609375 112.371094 C 104.640625 112.371094 104.667969 112.371094 104.695312 112.367188 C 104.941406 112.351562 105.175781 112.292969 105.382812 112.1875 C 106.105469 111.847656 106.589844 111.042969 106.554688 110.121094 C 106.511719 109 107.03125 108.09375 107.894531 106.707031 C 108.632812 105.515625 109.472656 104.160156 109.839844 102.382812 C 110.050781 101.359375 110.183594 100.304688 110.183594 99.207031 L 110.183594 97.050781 C 110.183594 96.347656 109.984375 95.621094 109.847656 94.886719 C 109.179688 91.273438 107.597656 87.257812 105.171875 82.777344 C 100.175781 73.554688 102.65625 66.761719 106.296875 63.746094 C 107.15625 63.035156 107.328125 61.683594 106.6875 60.730469 C 106.492188 60.4375 106.222656 60.203125 105.90625 60.054688 C 105.414062 59.808594 104.839844 59.808594 104.347656 60.054688 C 104.210938 60.117188 104.082031 60.199219 103.964844 60.296875 C 96.570312 66.421875 97.570312 77.117188 101.835938 84.988281 C 103.839844 88.675781 105.160156 91.9375 105.816406 94.820312 Z M 87.753906 95.605469 C 88.039062 96.328125 88.320312 97.023438 88.554688 97.703125 C 88.792969 98.386719 88.984375 99.042969 89.101562 99.675781 C 89.109375 99.71875 89.117188 99.761719 89.121094 99.804688 C 89.460938 101.683594 89.300781 102.914062 88.53125 104.457031 C 88.363281 104.796875 88.058594 105.214844 87.738281 105.648438 C 86.828125 106.859375 85.585938 108.542969 85.996094 110.832031 C 86.140625 111.628906 86.664062 112.078125 87.320312 112.511719 L 87.324219 112.511719 C 87.507812 112.511719 87.703125 112.5625 87.902344 112.5625 C 88.03125 112.5625 88.15625 112.496094 88.285156 112.46875 C 88.355469 112.453125 88.421875 112.433594 88.488281 112.40625 C 89.421875 112.089844 90.003906 111.027344 89.808594 109.9375 C 89.757812 109.664062 90.367188 108.851562 90.726562 108.367188 C 91.132812 107.828125 91.589844 107.214844 91.9375 106.523438 C 93.066406 104.25 93.40625 102.121094 93.027344 99.511719 C 92.921875 98.796875 92.769531 98.089844 92.574219 97.394531 C 92.371094 96.679688 92.121094 95.972656 91.855469 95.269531 C 91.644531 94.703125 91.417969 94.140625 91.195312 93.582031 C 89.53125 89.441406 88.695312 86.980469 90.832031 84.628906 C 91.589844 83.789062 91.59375 82.425781 90.835938 81.585938 C 90.621094 81.34375 90.347656 81.160156 90.042969 81.054688 C 89.664062 80.917969 89.253906 80.917969 88.875 81.054688 C 88.570312 81.160156 88.300781 81.339844 88.085938 81.582031 C 83.957031 86.140625 86.085938 91.449219 87.644531 95.332031 C 87.679688 95.421875 87.71875 95.511719 87.753906 95.605469 Z M 118.753906 95.359375 L 118.878906 95.664062 C 119.097656 96.277344 119.304688 96.855469 119.5 97.242188 C 119.539062 97.355469 119.589844 97.472656 119.628906 97.582031 C 119.878906 98.308594 120.109375 99.011719 120.234375 99.679688 C 120.242188 99.710938 120.292969 99.75 120.292969 99.789062 L 120.292969 99.800781 C 120.683594 101.675781 120.433594 102.910156 119.660156 104.457031 C 119.496094 104.796875 119.152344 105.214844 118.832031 105.644531 C 117.921875 106.859375 116.675781 108.542969 117.089844 110.832031 C 117.222656 111.585938 117.703125 112.027344 118.308594 112.441406 L 118.414062 112.511719 L 118.417969 112.511719 C 118.601562 112.511719 118.792969 112.5625 118.992188 112.5625 C 119.121094 112.5625 119.25 112.496094 119.378906 112.46875 C 119.449219 112.453125 119.515625 112.433594 119.582031 112.40625 C 120.515625 112.089844 121.097656 111.027344 120.902344 109.9375 C 120.851562 109.664062 121.457031 108.851562 121.820312 108.367188 C 122.226562 107.828125 122.683594 107.214844 123.027344 106.523438 C 124.058594 104.453125 124.429688 102.5 124.207031 100.203125 C 124.132812 99.460938 124.003906 98.726562 123.824219 98.003906 C 123.632812 97.242188 123.402344 96.492188 123.128906 95.757812 C 122.863281 95.027344 122.585938 94.300781 122.289062 93.582031 C 120.625 89.441406 119.789062 86.980469 121.921875 84.628906 C 122.683594 83.789062 122.683594 82.425781 121.925781 81.585938 C 121.710938 81.34375 121.4375 81.160156 121.132812 81.054688 C 120.757812 80.917969 120.34375 80.917969 119.96875 81.054688 C 119.664062 81.15625 119.394531 81.339844 119.183594 81.582031 C 115.050781 86.136719 117.183594 91.449219 118.738281 95.332031 C 118.746094 95.339844 118.753906 95.347656 118.753906 95.359375 Z M 118.753906 95.359375 "/>
</g>
</svg>
